<svg width="202" height="24" viewBox="0 0 202 24" fill="none" xmlns="http://www.w3.org/2000/svg">
<path fill-rule="evenodd" clip-rule="evenodd" d="M99.2595 4.90647C99.2595 4.25384 98.9053 3.6511 98.33 3.32478L93.0302 0.318467C92.4551 -0.00784848 91.7465 -0.00784848 91.1716 0.318467L89.8053 1.09341L96.6093 4.9532C96.8287 5.07763 96.9639 5.30752 96.9639 5.55636V13.2762L99.2495 11.9795L99.2595 11.9738V4.90647ZM95.545 8.56322V5.95901L89.3161 2.42533C88.741 2.09901 88.0325 2.09901 87.4574 2.42533L82.1571 5.43185C81.5822 5.75796 81.228 6.36091 81.228 7.01333V8.56343L88.032 4.70364C88.2517 4.57901 88.5221 4.57901 88.7415 4.70364L95.545 8.56322ZM102.974 7.01338V13.0264C102.974 13.6789 102.619 14.2818 102.045 14.6081L93.2486 19.5978V16.9934L100.324 12.9799C100.543 12.8555 100.678 12.6254 100.678 12.3765V4.65675L102.044 5.4319C102.619 5.75801 102.974 6.36096 102.974 7.01338ZM110.307 9.52482L112.511 8.27409V6.58251H110.931C110.54 6.58251 110.222 6.89451 110.222 7.27935V9.57261L110.307 9.52482ZM116.582 6.58251H115.016V17.0783H117.305V10.1812L120.739 14.3794L124.172 10.1812V17.0783H126.461V6.58251H124.895C124.583 6.58251 124.288 6.72208 124.093 6.96166L120.739 11.0808L117.385 6.96166C117.19 6.72208 116.894 6.58251 116.582 6.58251ZM130.64 6.58251H129.074V17.0783H131.363V10.1812L134.796 14.3794L138.23 10.1812V17.0783H140.519V6.58251H138.953C138.641 6.58251 138.345 6.72208 138.15 6.96166L134.796 11.0808L131.442 6.96166C131.247 6.72208 130.952 6.58251 130.64 6.58251ZM152.185 12.7301V6.58251H150.605C150.213 6.58251 149.895 6.89451 149.895 7.27935V12.7301C149.895 14.2295 148.919 15.2042 147.531 15.2042C146.142 15.2042 145.165 14.2295 145.165 12.7301V7.27935C145.165 6.89451 144.848 6.58251 144.456 6.58251H142.876V12.7301C142.876 14.8802 144.088 16.5057 145.969 17.0783C146.449 17.2244 146.972 17.3031 147.531 17.3031C148.089 17.3031 148.612 17.2244 149.092 17.0783C150.973 16.5057 152.185 14.8802 152.185 12.7301ZM162.127 6.58251V8.68167H159.075V17.0783H156.786V8.68167H153.734V6.58251H162.127ZM166.148 12.6551L167.414 9.20643H167.475L168.742 12.6551H166.148ZM165.894 7.22903L162.028 17.0783H164.469L165.385 14.6791H169.505L170.421 17.0783H172.862L168.996 7.22903C168.843 6.83956 168.462 6.58251 168.037 6.58251H166.853C166.428 6.58251 166.047 6.83956 165.894 7.22903ZM176.599 15.129H178.964C179.879 15.129 180.413 14.6193 180.413 13.8547C180.413 13.0901 179.879 12.5802 178.964 12.5802H176.599V15.129ZM178.659 8.53173H176.599V10.6309H178.659C179.437 10.6309 179.879 10.1812 179.879 9.58121C179.879 8.98163 179.437 8.53173 178.659 8.53173ZM181.787 12.0404C182.275 12.4452 182.779 13.06 182.779 14.0796C182.779 15.7139 181.39 17.0783 179.117 17.0783H174.31V6.58251H178.811C180.948 6.58251 182.245 7.85703 182.245 9.3564C182.245 10.1962 181.879 10.721 181.512 11.0657C181.299 11.2608 181.054 11.4257 180.795 11.5305C181.161 11.6356 181.497 11.8156 181.787 12.0404ZM187.011 14.9791V7.27935C187.011 6.89451 186.693 6.58251 186.302 6.58251H184.721V17.0783H191.97V14.9791H187.011ZM201.455 6.58251H194.229C193.837 6.58251 193.52 6.89451 193.52 7.27935V16.3817C193.52 16.7663 193.837 17.0783 194.229 17.0783H201.608V14.9791H195.809V12.7301H200.234V10.7059H195.809V8.68167H201.455V6.58251ZM110.222 10.8844L110.307 10.8366L112.511 9.58588V17.0783H110.222V10.8844ZM90.9529 23.8119V21.2072L83.8783 17.1938C83.6587 17.0693 83.5235 16.8392 83.5235 16.5902V11.8778C83.5235 11.6287 83.6587 11.3986 83.8783 11.2742L90.6823 7.41439L88.3866 6.11208L82.1571 9.64597C81.5822 9.97229 81.228 10.575 81.228 11.2274V17.2407C81.228 17.8931 81.5822 18.4961 82.1571 18.8222L90.9529 23.8119ZM102.974 15.6908V17.2409C102.974 17.8933 102.619 18.4962 102.045 18.8223L93.2486 23.812V21.2074L102.974 15.6908ZM90.9529 16.9935V19.5979L84.9421 16.188V12.2802L87.2384 10.9775V14.8863L90.9529 16.9935Z" fill="#F6F6F6"/>
<path d="M6.26413 9.07265C6.26413 10.0378 5.94057 10.7775 5.29345 11.2917C4.64633 11.8058 3.72526 12.0629 2.53024 12.0629H1.54662V15.521H0V6.27835H2.72438C3.90645 6.27835 4.79085 6.51437 5.37757 6.98641C5.96861 7.45844 6.26413 8.15386 6.26413 9.07265ZM1.54662 10.7922H2.36846C3.16226 10.7922 3.74467 10.6574 4.11569 10.3876C4.4867 10.1179 4.67221 9.69642 4.67221 9.12323C4.67221 8.59218 4.50612 8.19601 4.17393 7.9347C3.84174 7.67339 3.32404 7.54274 2.62084 7.54274H1.54662V10.7922Z" fill="#757C8E"/>
<path d="M14.3402 12.0124C14.3402 13.1545 14.0404 14.0459 13.4407 14.6866C12.841 15.3272 12.0062 15.6475 10.9363 15.6475C10.2676 15.6475 9.67661 15.5 9.16323 15.205C8.64985 14.9099 8.2551 14.4864 7.979 13.9342C7.70289 13.3821 7.56484 12.7415 7.56484 12.0124C7.56484 10.8786 7.86252 9.99355 8.45787 9.35714C9.05322 8.72073 9.89232 8.40252 10.9752 8.40252C12.0106 8.40252 12.8302 8.72916 13.4342 9.38243C14.0382 10.0315 14.3402 10.9081 14.3402 12.0124ZM9.13087 12.0124C9.13087 13.6266 9.74132 14.4337 10.9622 14.4337C12.1702 14.4337 12.7742 13.6266 12.7742 12.0124C12.7742 10.415 12.1659 9.61634 10.9493 9.61634C10.3108 9.61634 9.84702 9.82286 9.55797 10.2359C9.27324 10.6489 9.13087 11.2411 9.13087 12.0124Z" fill="#757C8E"/>
<path d="M21.9633 15.521L21.0379 12.2589C20.9257 11.9133 20.723 11.1104 20.4296 9.85025H20.3714C20.1211 10.9882 19.9227 11.7953 19.776 12.2716L18.8247 15.521H17.1422L15.1362 8.52896H16.6892L17.6017 11.9744C17.8088 12.8258 17.9554 13.5549 18.0417 14.1618H18.0806C18.1237 13.8542 18.1884 13.5022 18.2747 13.1061C18.3653 12.7057 18.4429 12.4064 18.5077 12.2083L19.5948 8.52896H21.2644L22.3192 12.2083C22.3839 12.4149 22.4637 12.731 22.5586 13.1566C22.6579 13.5823 22.7161 13.9132 22.7334 14.1492H22.7851C22.8498 13.6308 23.0008 12.9059 23.2381 11.9744L24.1635 8.52896H25.6907L23.6717 15.521H21.9633Z" fill="#757C8E"/>
<path d="M30.0523 15.6475C28.9392 15.6475 28.0678 15.3314 27.4379 14.6992C26.8124 14.0628 26.4996 13.1882 26.4996 12.0756C26.4996 10.9334 26.7908 10.0357 27.3732 9.38243C27.9556 8.72916 28.7559 8.40252 29.774 8.40252C30.7188 8.40252 31.4652 8.6828 32.0131 9.24334C32.561 9.80389 32.8349 10.5752 32.8349 11.5572V12.3601H28.0656C28.0872 13.0386 28.2749 13.5612 28.6286 13.9279C28.9824 14.2904 29.4807 14.4716 30.1235 14.4716C30.5463 14.4716 30.9388 14.4337 31.3012 14.3578C31.6679 14.2777 32.0605 14.1471 32.479 13.9658V15.1733C32.108 15.3461 31.7326 15.4684 31.353 15.54C30.9734 15.6117 30.5398 15.6475 30.0523 15.6475ZM29.774 9.52783C29.2908 9.52783 28.9026 9.67745 28.6092 9.97669C28.3202 10.2759 28.1476 10.7121 28.0915 11.2853H31.3401C31.3314 10.7079 31.1891 10.2717 30.913 9.97669C30.6369 9.67745 30.2572 9.52783 29.774 9.52783Z" fill="#757C8E"/>
<path d="M38.1931 8.40252C38.4994 8.40252 38.7517 8.4236 38.9502 8.46574L38.8014 9.85025C38.5857 9.79968 38.3613 9.77439 38.1284 9.77439C37.5201 9.77439 37.0261 9.96826 36.6464 10.356C36.2711 10.7438 36.0835 11.2474 36.0835 11.867V15.521H34.5627V8.52896H35.7534L35.954 9.76175H36.0317C36.269 9.3445 36.5774 9.01365 36.9571 8.7692C37.341 8.52475 37.753 8.40252 38.1931 8.40252Z" fill="#757C8E"/>
<path d="M43.4089 15.6475C42.2958 15.6475 41.4244 15.3314 40.7945 14.6992C40.1689 14.0628 39.8562 13.1882 39.8562 12.0756C39.8562 10.9334 40.1474 10.0357 40.7298 9.38243C41.3122 8.72916 42.1125 8.40252 43.1306 8.40252C44.0754 8.40252 44.8217 8.6828 45.3696 9.24334C45.9175 9.80389 46.1915 10.5752 46.1915 11.5572V12.3601H41.4222C41.4438 13.0386 41.6314 13.5612 41.9852 13.9279C42.339 14.2904 42.8372 14.4716 43.48 14.4716C43.9028 14.4716 44.2954 14.4337 44.6578 14.3578C45.0245 14.2777 45.4171 14.1471 45.8356 13.9658V15.1733C45.4645 15.3461 45.0892 15.4684 44.7096 15.54C44.3299 15.6117 43.8964 15.6475 43.4089 15.6475ZM43.1306 9.52783C42.6474 9.52783 42.2591 9.67745 41.9658 9.97669C41.6767 10.2759 41.5042 10.7121 41.4481 11.2853H44.6966C44.688 10.7079 44.5456 10.2717 44.2695 9.97669C43.9934 9.67745 43.6138 9.52783 43.1306 9.52783Z" fill="#757C8E"/>
<path d="M50.3331 15.6475C49.44 15.6475 48.7433 15.3314 48.2429 14.6992C47.7424 14.067 47.4922 13.1798 47.4922 12.0376C47.4922 10.8913 47.7446 9.99987 48.2493 9.36346C48.7584 8.72284 49.4616 8.40252 50.3589 8.40252C51.2994 8.40252 52.0156 8.7418 52.5074 9.42036H52.585C52.5117 8.91882 52.475 8.52264 52.475 8.23183V5.68408H54.0022V15.521H52.8115L52.5462 14.6044H52.475C51.9875 15.2998 51.2735 15.6475 50.3331 15.6475ZM50.7407 14.4463C51.3663 14.4463 51.8214 14.2756 52.1062 13.9342C52.3909 13.5886 52.5376 13.0302 52.5462 12.2589V12.0503C52.5462 11.1694 52.3995 10.5436 52.1062 10.1727C51.8128 9.80178 51.3533 9.61634 50.7278 9.61634C50.1928 9.61634 49.7808 9.82918 49.4918 10.2549C49.2027 10.6763 49.0582 11.279 49.0582 12.0629C49.0582 12.8384 49.1984 13.4306 49.4789 13.8394C49.7593 14.244 50.1799 14.4463 50.7407 14.4463Z" fill="#757C8E"/>
<path d="M63.2755 8.40252C64.1685 8.40252 64.8631 8.71862 65.3592 9.35082C65.8596 9.98301 66.1099 10.8702 66.1099 12.0124C66.1099 13.1587 65.8575 14.0522 65.3527 14.6929C64.848 15.3293 64.1469 15.6475 63.2496 15.6475C62.3436 15.6475 61.6404 15.3293 61.14 14.6929H61.0364L60.7582 15.521H59.6192V5.68408H61.14V8.02321C61.14 8.19601 61.1313 8.4531 61.1141 8.79449C61.0968 9.13587 61.0839 9.35293 61.0753 9.44565H61.14C61.6232 8.75023 62.335 8.40252 63.2755 8.40252ZM62.8807 9.61634C62.2681 9.61634 61.8259 9.79335 61.5541 10.1474C61.2867 10.4972 61.1486 11.0851 61.14 11.9112V12.0124C61.14 12.8637 61.278 13.4812 61.5541 13.8647C61.8302 14.244 62.2811 14.4337 62.9066 14.4337C63.4459 14.4337 63.8536 14.225 64.1297 13.8078C64.4101 13.3905 64.5503 12.7879 64.5503 11.9997C64.5503 10.4108 63.9938 9.61634 62.8807 9.61634Z" fill="#757C8E"/>
<path d="M66.7893 8.52896H68.446L69.902 12.4928C70.122 13.0576 70.2687 13.5886 70.342 14.086H70.3938C70.4326 13.8542 70.5038 13.5739 70.6073 13.2451C70.7109 12.9122 71.2588 11.3401 72.251 8.52896H73.8947L70.8338 16.4504C70.2773 17.9044 69.3498 18.6315 68.0512 18.6315C67.7147 18.6315 67.3868 18.5956 67.0676 18.524V17.3481C67.2962 17.3987 67.5573 17.424 67.8506 17.424C68.584 17.424 69.0996 17.0088 69.3972 16.1785L69.6626 15.521L66.7893 8.52896Z" fill="#757C8E"/>
</svg>
