<svg width="121" height="24" viewBox="0 0 121 24" fill="none" xmlns="http://www.w3.org/2000/svg">
<path fill-rule="evenodd" clip-rule="evenodd" d="M18.2595 4.90647C18.2595 4.25384 17.9053 3.6511 17.33 3.32478L12.0302 0.318467C11.4551 -0.00784848 10.7465 -0.00784848 10.1716 0.318467L8.80526 1.09341L15.6093 4.9532C15.8287 5.07763 15.9639 5.30752 15.9639 5.55636V13.2762L18.2495 11.9795L18.2595 11.9738V4.90647ZM14.545 8.56322V5.95901L8.31613 2.42533C7.74104 2.09901 7.03246 2.09901 6.45737 2.42533L1.15708 5.43185C0.582208 5.75796 0.228027 6.36091 0.228027 7.01333V8.56343L7.03203 4.70364C7.25165 4.57901 7.52206 4.57901 7.74147 4.70364L14.545 8.56322ZM21.9739 7.01338V13.0264C21.9739 13.6789 21.6195 14.2818 21.0446 14.6081L12.2486 19.5978V16.9934L19.3238 12.9799C19.543 12.8555 19.6782 12.6254 19.6782 12.3765V4.65675L21.0444 5.4319C21.6195 5.75801 21.9739 6.36096 21.9739 7.01338ZM29.3066 9.52482L31.5114 8.27409V6.58251H29.9312C29.5398 6.58251 29.2224 6.89451 29.2224 7.27935V9.57261L29.3066 9.52482ZM35.5823 6.58251H34.016V17.0783H36.3052V10.1812L39.7386 14.3794L43.1718 10.1812V17.0783H45.461V6.58251H43.895C43.5828 6.58251 43.2875 6.72208 43.0925 6.96166L39.7386 11.0808L36.3847 6.96166C36.1895 6.72208 35.8945 6.58251 35.5823 6.58251ZM49.6398 6.58251H48.0737V17.0783H50.3629V10.1812L53.7961 14.3794L57.2297 10.1812V17.0783H59.5187V6.58251H57.9527C57.6407 6.58251 57.3452 6.72208 57.1502 6.96166L53.7961 11.0808L50.4422 6.96166C50.2472 6.72208 49.952 6.58251 49.6398 6.58251ZM71.1847 12.7301V6.58251H69.6047C69.213 6.58251 68.8955 6.89451 68.8955 7.27935V12.7301C68.8955 14.2295 67.9188 15.2042 66.5306 15.2042C65.142 15.2042 64.1651 14.2295 64.1651 12.7301V7.27935C64.1651 6.89451 63.8476 6.58251 63.4561 6.58251H61.8759V12.7301C61.8759 14.8802 63.0876 16.5057 64.9686 17.0783C65.4488 17.2244 65.972 17.3031 66.5306 17.3031C67.089 17.3031 67.6122 17.2244 68.0924 17.0783C69.9732 16.5057 71.1847 14.8802 71.1847 12.7301ZM81.1273 6.58251V8.68167H78.0755V17.0783H75.7863V8.68167H72.7343V6.58251H81.1273ZM85.1482 12.6551L86.4143 9.20643H86.4753L87.7421 12.6551H85.1482ZM84.8943 7.22903L81.0276 17.0783H83.4692L84.3845 14.6791H88.5051L89.4206 17.0783H91.8622L87.996 7.22903C87.843 6.83956 87.4618 6.58251 87.0371 6.58251H85.8531C85.4282 6.58251 85.0472 6.83956 84.8943 7.22903ZM95.5987 15.129H97.9635C98.8793 15.129 99.4135 14.6193 99.4135 13.8547C99.4135 13.0901 98.8793 12.5802 97.9635 12.5802H95.5987V15.129ZM97.6586 8.53173H95.5987V10.6309H97.6586C98.4368 10.6309 98.8793 10.1812 98.8793 9.58121C98.8793 8.98163 98.4368 8.53173 97.6586 8.53173ZM100.787 12.0404C101.275 12.4452 101.779 13.06 101.779 14.0796C101.779 15.7139 100.39 17.0783 98.1165 17.0783H93.3095V6.58251H97.8114C99.9477 6.58251 101.245 7.85703 101.245 9.3564C101.245 10.1962 100.879 10.721 100.512 11.0657C100.299 11.2608 100.054 11.4257 99.7949 11.5305C100.161 11.6356 100.497 11.8156 100.787 12.0404ZM106.011 14.9791V7.27935C106.011 6.89451 105.693 6.58251 105.302 6.58251H103.721V17.0783H110.97V14.9791H106.011ZM120.455 6.58251H113.229C112.837 6.58251 112.52 6.89451 112.52 7.27935V16.3817C112.52 16.7663 112.837 17.0783 113.229 17.0783H120.608V14.9791H114.809V12.7301H119.234V10.7059H114.809V8.68167H120.455V6.58251ZM29.2224 10.8844L29.3066 10.8366L31.5114 9.58588V17.0783H29.2224V10.8844ZM9.9529 23.8119V21.2072L2.87828 17.1938C2.65866 17.0693 2.52345 16.8392 2.52345 16.5902V11.8778C2.52345 11.6287 2.65866 11.3986 2.87828 11.2742L9.68228 7.41439L7.38664 6.11208L1.15708 9.64597C0.582208 9.97229 0.228027 10.575 0.228027 11.2274V17.2407C0.228027 17.8931 0.582208 18.4961 1.15708 18.8222L9.9529 23.8119ZM21.9739 15.6908V17.2409C21.9739 17.8933 21.6195 18.4962 21.0446 18.8223L12.2486 23.812V21.2074L21.9739 15.6908ZM9.95289 16.9935V19.5979L3.9421 16.188V12.2802L6.23838 10.9775V14.8863L9.95289 16.9935Z" fill="#F6F6F6"/>
</svg>
