<svg width="182" height="31" viewBox="0 0 182 31" fill="none" xmlns="http://www.w3.org/2000/svg">
<g clip-path="url(#clip0)">
<path d="M178.927 6.31476H181.354L171.502 17.3576C171.247 17.6314 171.239 18.0681 171.487 18.3493L177.171 24.8329H174.635L169.381 18.823L169.119 18.4974C168.871 18.2161 168.878 17.7794 169.133 17.5056L178.927 6.31476Z" fill="#24D1E9"/>
<path d="M173.455 18.3567C173.294 18.1717 173.236 17.92 173.294 17.6906C173.338 17.5648 173.433 17.4241 173.52 17.3279L174.176 16.6174L181.412 24.8329H179.109C179.109 24.8329 174.868 19.9776 173.455 18.3567Z" fill="#24D1E9"/>
<path d="M160.79 24.8329H158.261L166.014 16.0253C166.262 15.7441 166.262 15.3222 166.014 15.0483L158.319 6.31476H160.753L168.492 15.1224C168.689 15.3814 168.725 15.7589 168.514 16.0031C166.488 18.3049 160.79 24.8329 160.79 24.8329Z" fill="#24D1E9"/>
<path d="M165.031 6.31476H162.691L169.862 14.4636C169.862 14.4636 169.884 14.4488 170.685 13.5237C170.904 13.272 170.948 12.9612 170.707 12.7243C169.199 11.207 165.031 6.31476 165.031 6.31476Z" fill="#24D1E9"/>
<path d="M172.012 11.999L176.989 6.31476H174.635L172.034 9.2901L171.283 10.1487C171.028 10.4225 171.021 10.8518 171.268 11.1404C171.458 11.3551 172.012 11.999 172.012 11.999Z" fill="#24D1E9"/>
<path d="M167.69 19.1487L162.713 24.833H165.067L167.669 21.8576L168.419 20.9991C168.674 20.7252 168.681 20.296 168.434 20.0073C168.244 19.7927 167.69 19.1487 167.69 19.1487Z" fill="#24D1E9"/>
<path d="M42.8178 8.50159H44.7975C45.1806 8.50159 45.5638 8.69554 45.8192 8.98647L50.0659 14.3525L54.3125 8.98647C54.568 8.66321 54.9192 8.50159 55.3343 8.50159H57.3139V22.2075H54.4083V13.1888L50.0659 18.6841L45.7234 13.1888V22.2075H42.8178V8.50159Z" fill="#FFFFFE"/>
<path d="M60.6666 8.50159H62.6463C63.0294 8.50159 63.4126 8.69554 63.668 8.98647L67.9147 14.3525L72.1614 8.98647C72.4168 8.66321 72.768 8.50159 73.1831 8.50159H75.1628V22.2075H72.2572V13.1888L67.9147 18.6841L63.5722 13.1888V22.2075H60.6666V8.50159Z" fill="#FFFFFE"/>
<path d="M89.9462 16.5183V8.50159H87.9347C87.4238 8.50159 87.0406 8.92182 87.0406 9.4067V16.5183C87.0406 18.4901 85.7954 19.7508 84.0392 19.7508C82.2831 19.7508 81.0378 18.4901 81.0378 16.5183V9.4067C81.0378 8.88949 80.6227 8.50159 80.1438 8.50159H78.1322V16.5183C78.1322 19.3306 79.6648 21.464 82.0596 22.2075C82.6662 22.4015 83.3368 22.4985 84.0392 22.4985C84.7417 22.4985 85.4122 22.4015 86.0189 22.2075C88.4136 21.464 89.9462 19.3306 89.9462 16.5183Z" fill="#FFFFFE"/>
<path d="M102.558 11.2492V8.50159H91.9258V11.2492H95.7894V22.2075H98.695V11.2492H102.558Z" fill="#FFFFFE"/>
<path d="M107.316 9.34205L102.399 22.2075H105.496L106.646 19.072H111.882L113.032 22.2075H116.129L111.243 9.34205C111.052 8.82484 110.573 8.50159 110.03 8.50159H108.561C108.019 8.50159 107.54 8.82484 107.316 9.34205ZM107.667 16.4213L109.264 11.9281H109.328L110.924 16.4213H107.667Z" fill="#FFFFFE"/>
<path d="M128.741 18.2962C128.741 16.9708 128.102 16.1627 127.496 15.6455C127.113 15.3546 126.697 15.1283 126.25 14.9667C126.57 14.8374 126.889 14.6111 127.145 14.3525C127.623 13.8999 128.07 13.2211 128.07 12.122C128.07 10.1502 126.442 8.50159 123.728 8.50159H118.013V22.2075H124.111C126.985 22.2075 128.741 20.4296 128.741 18.2962ZM120.886 11.0553H123.505C124.494 11.0553 125.037 11.6371 125.037 12.413C125.037 13.1888 124.462 13.7706 123.505 13.7706H120.886V11.0553ZM123.888 19.6538H120.886V16.3243H123.888C125.037 16.3243 125.74 17.0031 125.74 17.9729C125.74 19.0073 125.069 19.6538 123.888 19.6538Z" fill="#FFFFFE"/>
<path d="M134.105 19.4599V9.4067C134.105 8.88949 133.69 8.50159 133.211 8.50159H131.2V22.2075H140.395V19.4599H134.105Z" fill="#FFFFFE"/>
<path d="M143.237 8.50159H152.401V11.2492H145.249V13.8999H150.868V16.5506H145.249V19.4922H152.593V22.2399H143.237C142.726 22.2399 142.343 21.8196 142.343 21.3347V9.4067C142.343 8.92182 142.758 8.50159 143.237 8.50159Z" fill="#FFFFFE"/>
<path d="M36.847 12.3483L39.6568 10.6997V8.50159H37.6452C37.1343 8.50159 36.7512 8.92182 36.7512 9.4067V12.413L36.847 12.3483Z" fill="#FFFFFE"/>
<path d="M36.847 14.0616L36.7512 14.1262V22.2075H39.6568V12.413L36.847 14.0616Z" fill="#FFFFFE"/>
<path d="M27.5554 9.0511V16.9062C27.5554 17.7466 27.1084 18.5548 26.374 18.975L15.2305 25.5047V22.1105L24.2028 16.8738C24.4902 16.7122 24.6498 16.4213 24.6498 16.098V5.98019L26.374 6.98228C27.1084 7.43483 27.5554 8.21064 27.5554 9.0511Z" fill="#FFFFFE"/>
<path d="M12.3249 27.6058V31L1.1814 24.5026C0.447018 24.0501 0 23.2743 0 22.4338V14.5787C0 13.7383 0.447018 12.9301 1.1814 12.5099L9.06807 7.88739L11.9737 9.60063L3.35263 14.6434C3.06526 14.805 2.90561 15.0959 2.90561 15.4192V21.561C2.90561 21.8843 3.06526 22.1752 3.35263 22.3368L12.3249 27.6058Z" fill="#FFFFFE"/>
<path d="M27.5554 20.3973V22.4338C27.5554 23.2743 27.1084 24.0824 26.374 24.5026L15.2305 31V27.6059L27.5554 20.3973Z" fill="#FFFFFE"/>
<path d="M18.1361 7.69343V11.0876L9.51509 6.04484C9.22772 5.88321 8.90842 5.88321 8.62105 6.04484L0 11.0876V9.0511C0 8.21064 0.447018 7.4025 1.1814 6.98227L7.88667 3.07091C8.62105 2.65068 9.51509 2.65068 10.2495 3.07091L18.1361 7.69343Z" fill="#FFFFFE"/>
<path d="M12.325 22.1106V25.5047L4.69373 21.0438V15.9364L7.63127 14.2555V19.3629L12.325 22.1106Z" fill="#FFFFFE"/>
<path d="M21.6803 4.23462C22.4147 4.65485 22.8617 5.46299 22.8617 6.30345V15.5485L19.9561 17.2294V7.17623C19.9561 6.85298 19.7965 6.56205 19.5091 6.40042L10.8881 1.35767L12.6123 0.323259C13.3467 -0.0969702 14.2407 -0.0969702 14.9751 0.323259L21.6803 4.23462Z" fill="#FFFFFE"/>
</g>
<defs>
<clipPath id="clip0">
<rect width="182" height="31" fill="white"/>
</clipPath>
</defs>
</svg>
