<svg width="74" height="14" viewBox="0 0 74 14" fill="none" xmlns="http://www.w3.org/2000/svg">
<path d="M6.26413 4.07216C6.26413 5.03732 5.94057 5.77698 5.29345 6.29117C4.64633 6.80536 3.72526 7.06245 2.53024 7.06245H1.54662V10.5206H0V1.27786H2.72438C3.90645 1.27786 4.79085 1.51388 5.37757 1.98592C5.96861 2.45796 6.26413 3.15337 6.26413 4.07216ZM1.54662 5.79174H2.36846C3.16226 5.79174 3.74467 5.65687 4.11569 5.38713C4.4867 5.11739 4.67221 4.69593 4.67221 4.12274C4.67221 3.59169 4.50612 3.19552 4.17393 2.93421C3.84174 2.6729 3.32404 2.54225 2.62084 2.54225H1.54662V5.79174Z" fill="#757C8E"/>
<path d="M14.3402 7.01187C14.3402 8.15404 14.0404 9.04544 13.4407 9.68606C12.841 10.3267 12.0062 10.647 10.9363 10.647C10.2677 10.647 9.67661 10.4995 9.16323 10.2045C8.64985 9.90944 8.25511 9.48587 7.979 8.93375C7.7029 8.38163 7.56484 7.74101 7.56484 7.01187C7.56484 5.87814 7.86252 4.99306 8.45787 4.35665C9.05322 3.72024 9.89232 3.40204 10.9752 3.40204C12.0106 3.40204 12.8303 3.72867 13.4342 4.38194C14.0382 5.03099 14.3402 5.90764 14.3402 7.01187ZM9.13088 7.01187C9.13088 8.62608 9.74133 9.43318 10.9622 9.43318C12.1702 9.43318 12.7742 8.62608 12.7742 7.01187C12.7742 5.41453 12.1659 4.61585 10.9493 4.61585C10.3108 4.61585 9.84702 4.82237 9.55798 5.2354C9.27324 5.64844 9.13088 6.24059 9.13088 7.01187Z" fill="#757C8E"/>
<path d="M21.9633 10.5206L21.0379 7.25843C20.9257 6.91283 20.723 6.10994 20.4296 4.84976H20.3714C20.1211 5.98772 19.9227 6.79482 19.776 7.27107L18.8247 10.5206H17.1422L15.1362 3.52847H16.6892L17.6017 6.97394C17.8088 7.8253 17.9554 8.55443 18.0417 9.16134H18.0806C18.1237 8.85367 18.1884 8.50175 18.2747 8.10557C18.3653 7.70518 18.4429 7.40594 18.5077 7.20785L19.5948 3.52847H21.2644L22.3192 7.20785C22.3839 7.41437 22.4637 7.73047 22.5586 8.15615C22.6579 8.58183 22.7161 8.91268 22.7334 9.1487H22.7851C22.8498 8.6303 23.0008 7.90538 23.2381 6.97394L24.1635 3.52847H25.6907L23.6717 10.5206H21.9633Z" fill="#757C8E"/>
<path d="M30.0523 10.647C28.9392 10.647 28.0678 10.3309 27.4379 9.69871C26.8124 9.0623 26.4996 8.18776 26.4996 7.07509C26.4996 5.93293 26.7908 5.03521 27.3732 4.38194C27.9556 3.72867 28.7559 3.40204 29.774 3.40204C30.7188 3.40204 31.4652 3.68231 32.0131 4.24286C32.561 4.8034 32.8349 5.57468 32.8349 6.55669V7.35958H28.0656C28.0872 8.03814 28.2749 8.56075 28.6286 8.92743C28.9824 9.28989 29.4807 9.47112 30.1235 9.47112C30.5463 9.47112 30.9389 9.43318 31.3012 9.35732C31.6679 9.27724 32.0605 9.14659 32.479 8.96536V10.1729C32.108 10.3457 31.7327 10.4679 31.353 10.5395C30.9734 10.6112 30.5398 10.647 30.0523 10.647ZM29.774 4.52734C29.2908 4.52734 28.9026 4.67696 28.6092 4.9762C28.3202 5.27544 28.1476 5.71166 28.0915 6.28485H31.3401C31.3314 5.70744 31.1891 5.27123 30.913 4.9762C30.6369 4.67696 30.2572 4.52734 29.774 4.52734Z" fill="#757C8E"/>
<path d="M38.1931 3.40204C38.4994 3.40204 38.7518 3.42311 38.9502 3.46526L38.8014 4.84976C38.5857 4.79919 38.3613 4.7739 38.1284 4.7739C37.5201 4.7739 37.0261 4.96777 36.6465 5.35552C36.2711 5.74327 36.0835 6.24692 36.0835 6.86647V10.5206H34.5627V3.52847H35.7534L35.954 4.76126H36.0317C36.269 4.34401 36.5774 4.01316 36.9571 3.76871C37.341 3.52426 37.753 3.40204 38.1931 3.40204Z" fill="#757C8E"/>
<path d="M43.4089 10.647C42.2958 10.647 41.4244 10.3309 40.7945 9.69871C40.169 9.0623 39.8562 8.18776 39.8562 7.07509C39.8562 5.93293 40.1474 5.03521 40.7298 4.38194C41.3122 3.72867 42.1125 3.40204 43.1306 3.40204C44.0754 3.40204 44.8218 3.68231 45.3696 4.24286C45.9175 4.8034 46.1915 5.57468 46.1915 6.55669V7.35958H41.4222C41.4438 8.03814 41.6314 8.56075 41.9852 8.92743C42.339 9.28989 42.8372 9.47112 43.4801 9.47112C43.9028 9.47112 44.2954 9.43318 44.6578 9.35732C45.0245 9.27724 45.4171 9.14659 45.8356 8.96536V10.1729C45.4646 10.3457 45.0892 10.4679 44.7096 10.5395C44.3299 10.6112 43.8964 10.647 43.4089 10.647ZM43.1306 4.52734C42.6474 4.52734 42.2592 4.67696 41.9658 4.9762C41.6767 5.27544 41.5042 5.71166 41.4481 6.28485H44.6966C44.688 5.70744 44.5456 5.27123 44.2695 4.9762C43.9934 4.67696 43.6138 4.52734 43.1306 4.52734Z" fill="#757C8E"/>
<path d="M50.3331 10.647C49.44 10.647 48.7433 10.3309 48.2429 9.69871C47.7424 9.06651 47.4922 8.17933 47.4922 7.03716C47.4922 5.89078 47.7446 4.99938 48.2493 4.36297C48.7584 3.72235 49.4616 3.40204 50.3589 3.40204C51.2994 3.40204 52.0156 3.74131 52.5074 4.41987H52.585C52.5117 3.91833 52.475 3.52215 52.475 3.23134V0.683594H54.0022V10.5206H52.8115L52.5462 9.60388H52.475C51.9875 10.2993 51.2735 10.647 50.3331 10.647ZM50.7407 9.44583C51.3663 9.44583 51.8214 9.27514 52.1062 8.93375C52.3909 8.58815 52.5376 8.02971 52.5462 7.25843V7.04981C52.5462 6.16895 52.3995 5.54307 52.1062 5.17218C51.8128 4.8013 51.3534 4.61585 50.7278 4.61585C50.1929 4.61585 49.7809 4.82869 49.4918 5.25437C49.2028 5.67583 49.0582 6.27853 49.0582 7.06245C49.0582 7.83794 49.1984 8.4301 49.4789 8.83892C49.7593 9.24353 50.1799 9.44583 50.7407 9.44583Z" fill="#757C8E"/>
<path d="M63.2755 3.40204C64.1685 3.40204 64.8631 3.71813 65.3592 4.35033C65.8596 4.98253 66.1099 5.86971 66.1099 7.01187C66.1099 8.15826 65.8575 9.05176 65.3527 9.69238C64.848 10.3288 64.1469 10.647 63.2496 10.647C62.3436 10.647 61.6404 10.3288 61.14 9.69238H61.0364L60.7582 10.5206H59.6192V0.683594H61.14V3.02272C61.14 3.19552 61.1314 3.45261 61.1141 3.794C61.0968 4.13538 61.0839 4.35244 61.0753 4.44516H61.14C61.6232 3.74974 62.335 3.40204 63.2755 3.40204ZM62.8807 4.61585C62.2681 4.61585 61.8259 4.79287 61.5541 5.1469C61.2867 5.49671 61.1486 6.08465 61.14 6.91072V7.01187C61.14 7.86323 61.278 8.48068 61.5541 8.86421C61.8302 9.24353 62.2811 9.43318 62.9066 9.43318C63.4459 9.43318 63.8536 9.22456 64.1297 8.80731C64.4101 8.39006 64.5503 7.78737 64.5503 6.99923C64.5503 5.41031 63.9938 4.61585 62.8807 4.61585Z" fill="#757C8E"/>
<path d="M66.7894 3.52847H68.446L69.902 7.49234C70.122 8.0571 70.2687 8.58815 70.342 9.08548H70.3938C70.4326 8.85367 70.5038 8.5734 70.6074 8.24466C70.7109 7.9117 71.2588 6.33964 72.2511 3.52847H73.8947L70.8339 11.4499C70.2773 12.9039 69.3498 13.631 68.0512 13.631C67.7147 13.631 67.3869 13.5951 67.0676 13.5235V12.3476C67.2963 12.3982 67.5573 12.4235 67.8506 12.4235C68.584 12.4235 69.0996 12.0083 69.3972 11.178L69.6626 10.5206L66.7894 3.52847Z" fill="#757C8E"/>
</svg>
