<?xml version="1.0" standalone="no"?>
<!DOCTYPE svg PUBLIC "-//W3C//DTD SVG 20010904//EN"
 "http://www.w3.org/TR/2001/REC-SVG-20010904/DTD/svg10.dtd">
<svg version="1.0" xmlns="http://www.w3.org/2000/svg"
 width="656.000000pt" height="656.000000pt" viewBox="0 0 656.000000 656.000000"
 preserveAspectRatio="xMidYMid meet">
<metadata>
Created by potrace 1.14, written by Peter Selinger 2001-2017
</metadata>
<g transform="translate(0.000000,656.000000) scale(0.100000,-0.100000)"
fill="#000000" stroke="none">
<path d="M36 5898 c10 -12 26 -29 34 -38 50 -55 131 -146 260 -290 41 -47 85
-95 97 -107 12 -13 21 -23 19 -23 -2 0 13 -17 33 -38 35 -37 151 -166 188
-208 38 -44 149 -168 168 -188 11 -12 70 -77 130 -146 61 -68 119 -134 130
-145 11 -12 49 -55 85 -95 60 -68 127 -143 175 -196 11 -12 47 -52 80 -90 33
-37 69 -77 80 -88 11 -12 54 -59 95 -106 40 -47 85 -97 99 -111 15 -14 40 -42
56 -61 29 -34 132 -150 185 -209 14 -15 40 -45 59 -66 19 -21 55 -61 80 -88
143 -157 160 -186 156 -265 -3 -68 -21 -98 -130 -215 -31 -34 -43 -47 -165
-185 -41 -47 -79 -90 -85 -96 -5 -6 -39 -44 -75 -84 -36 -40 -76 -85 -90 -100
-29 -32 -79 -87 -135 -151 -22 -24 -74 -82 -115 -129 -41 -46 -85 -95 -98
-109 -13 -14 -33 -37 -46 -51 -12 -14 -60 -68 -106 -120 -47 -52 -89 -100 -95
-106 -5 -6 -41 -45 -79 -87 -38 -43 -78 -88 -90 -100 -12 -13 -37 -41 -56 -64
-39 -45 -159 -179 -205 -229 -35 -38 -125 -139 -152 -170 -16 -19 -129 -146
-178 -200 -98 -108 -147 -163 -165 -184 -31 -36 -152 -171 -168 -187 -7 -7
-10 -13 -5 -14 4 0 165 0 358 0 l349 -1 36 39 c29 33 139 156 175 197 64 73
217 246 240 272 42 45 134 150 152 170 10 12 47 54 83 94 36 40 70 78 75 84
58 67 203 230 247 278 18 20 58 64 88 99 30 35 67 76 81 91 14 15 47 53 75 84
27 32 60 69 73 83 12 15 46 52 75 84 28 33 60 69 71 81 11 12 47 53 80 90 33
38 74 83 90 101 17 17 53 58 80 90 28 32 57 65 65 74 9 9 47 52 85 95 39 44
79 89 90 100 11 12 45 50 75 85 30 34 69 78 85 96 96 104 105 120 105 192 0
42 -21 104 -45 129 -5 6 -37 42 -70 79 -33 38 -64 73 -70 79 -5 7 -30 34 -55
62 -25 27 -76 85 -115 128 -38 44 -86 96 -105 117 -19 21 -55 61 -80 90 -25
28 -56 64 -70 79 -33 36 -147 163 -172 192 -11 13 -47 54 -81 92 -78 86 -88
97 -167 186 -36 41 -75 85 -87 98 -12 13 -46 51 -75 85 -29 33 -69 76 -88 97
-19 21 -44 48 -54 61 -10 13 -40 47 -65 74 -72 79 -194 215 -237 265 -21 24
-48 54 -59 65 -11 12 -47 52 -80 89 -33 38 -69 78 -80 90 -11 12 -49 55 -85
96 -36 41 -84 94 -107 119 -23 25 -50 55 -60 67 -10 12 -42 49 -72 83 l-53 61
-346 0 -345 0 19 -22z"/>
<path d="M1266 5909 c6 -11 56 -67 104 -118 14 -15 54 -61 90 -102 36 -40 76
-86 90 -100 14 -15 48 -53 77 -85 28 -33 65 -75 83 -94 37 -41 148 -165 170
-190 31 -35 146 -165 167 -187 12 -13 50 -56 85 -95 35 -39 83 -94 108 -121
25 -27 52 -58 60 -67 44 -50 148 -166 165 -185 11 -11 51 -56 90 -100 66 -75
94 -107 162 -181 15 -17 51 -57 80 -90 28 -32 62 -71 75 -85 12 -14 55 -61 93
-103 39 -43 79 -88 90 -100 11 -12 47 -53 80 -90 33 -38 81 -91 106 -118 l45
-49 60 67 c81 92 90 102 138 158 22 27 46 54 51 60 19 20 35 67 35 99 0 44
-23 76 -131 188 -52 53 -132 138 -179 188 -47 51 -103 112 -125 136 -22 23
-71 77 -110 120 -38 43 -81 90 -95 105 -14 15 -54 61 -90 101 -36 40 -82 91
-102 114 -20 22 -45 49 -55 61 -10 12 -47 54 -83 94 -36 40 -73 82 -83 94 -10
12 -40 46 -67 76 -26 30 -57 64 -67 76 -106 122 -131 150 -153 174 -14 15 -45
51 -70 80 -25 29 -49 58 -55 64 -5 6 -39 45 -75 86 -36 41 -76 87 -89 102
l-24 28 -329 0 c-236 0 -327 -3 -322 -11z"/>
<path d="M4596 5875 c-21 -25 -50 -57 -65 -73 -24 -26 -112 -125 -161 -182
-12 -14 -54 -61 -94 -105 -40 -44 -88 -98 -107 -120 -19 -21 -41 -46 -49 -55
-20 -22 -133 -149 -158 -178 -24 -28 -129 -146 -197 -221 -27 -31 -56 -64 -65
-75 -8 -10 -21 -24 -28 -32 -18 -18 -42 -91 -42 -125 0 -40 29 -108 61 -144
15 -16 37 -41 49 -55 12 -14 44 -51 72 -82 28 -32 57 -66 64 -75 15 -21 17
-19 158 142 48 55 95 107 104 115 10 8 27 28 39 43 12 16 53 63 91 105 38 43
84 95 103 116 19 22 45 52 59 66 14 14 52 57 85 95 33 37 65 73 70 79 6 6 48
54 94 106 46 52 93 104 105 116 12 12 40 43 62 70 23 27 52 61 65 75 13 14 53
59 89 100 36 41 73 83 83 94 10 11 40 44 65 73 26 30 63 71 82 92 19 20 44 47
54 59 l19 21 -334 0 -335 0 -38 -45z"/>
<path d="M5769 5828 c-46 -51 -86 -95 -89 -98 -3 -3 -34 -39 -70 -80 -36 -41
-74 -84 -85 -96 -11 -11 -45 -49 -75 -84 -30 -35 -71 -81 -90 -101 -19 -21
-49 -55 -67 -76 -17 -21 -51 -59 -75 -85 -24 -25 -54 -59 -67 -75 -21 -24
-157 -177 -186 -209 -5 -6 -37 -41 -70 -79 -33 -38 -69 -78 -80 -91 -11 -12
-35 -39 -54 -60 -19 -22 -53 -59 -75 -84 -23 -25 -70 -79 -106 -119 -36 -41
-86 -97 -111 -125 -26 -28 -57 -63 -70 -77 -13 -15 -35 -40 -48 -55 -22 -26
-151 -172 -176 -199 -21 -24 -135 -151 -152 -172 -10 -12 -51 -57 -89 -100
-39 -43 -95 -105 -124 -138 -30 -33 -56 -62 -59 -65 -4 -3 -31 -34 -61 -69
-30 -36 -66 -77 -80 -91 -14 -15 -38 -42 -54 -61 -16 -19 -63 -72 -105 -119
-42 -47 -89 -100 -106 -119 -16 -18 -35 -39 -41 -45 -5 -6 -50 -56 -99 -111
-48 -55 -91 -102 -94 -105 -29 -23 -72 -96 -81 -135 -13 -59 1 -137 30 -165 3
-3 25 -30 50 -60 25 -30 49 -60 55 -66 26 -29 142 -159 155 -174 8 -9 44 -50
80 -90 36 -40 72 -81 80 -90 18 -21 141 -159 155 -174 6 -6 42 -47 80 -91 39
-44 75 -84 81 -90 5 -5 57 -64 115 -130 57 -66 113 -129 124 -141 11 -11 45
-49 75 -83 30 -35 64 -73 75 -85 11 -13 47 -53 80 -91 33 -37 71 -80 85 -95
34 -37 94 -104 160 -180 30 -35 71 -81 90 -103 l36 -39 357 -2 c196 0 357 1
357 4 0 3 -17 23 -38 46 -39 43 -151 168 -213 238 -20 23 -60 68 -90 101 -29
33 -58 66 -64 72 -5 7 -26 30 -45 51 -19 21 -60 67 -90 101 -30 35 -68 77 -85
95 -31 34 -129 144 -164 184 -22 26 -141 160 -156 176 -6 6 -48 54 -95 106
-46 52 -86 97 -89 100 -3 3 -35 39 -71 80 -36 41 -74 84 -85 95 -11 12 -45 49
-75 84 -30 35 -68 77 -83 94 -27 30 -93 105 -152 172 -46 53 -59 86 -59 151 1
41 7 70 20 90 15 24 113 138 184 214 8 9 53 58 100 110 47 51 106 117 132 145
26 28 56 62 68 75 12 14 54 60 93 104 86 93 101 110 192 211 39 43 81 90 95
105 14 15 57 62 95 105 39 42 84 92 100 110 17 18 62 68 100 111 39 43 81 89
95 104 14 15 55 60 91 101 87 97 113 126 158 174 20 22 75 82 121 134 47 52
96 106 110 121 14 15 57 62 95 105 39 43 81 90 95 105 14 15 59 64 100 110 41
46 100 111 131 144 31 34 73 81 95 105 21 25 50 57 64 71 14 15 57 62 95 105
39 43 79 89 90 101 85 93 198 217 239 260 26 29 55 62 63 73 l14 21 -339 0
-340 0 -83 -92z"/>
<path d="M4470 3012 c-19 -21 -68 -74 -108 -118 -86 -92 -112 -138 -112 -194
0 -72 31 -118 196 -300 18 -19 42 -46 54 -60 12 -14 47 -54 78 -89 31 -35 65
-73 75 -84 58 -67 135 -154 157 -177 14 -14 50 -55 80 -90 30 -35 62 -72 70
-81 54 -58 112 -124 160 -178 30 -35 64 -73 75 -85 11 -13 49 -56 85 -96 36
-41 87 -99 115 -129 27 -31 59 -67 70 -80 11 -13 35 -40 53 -59 17 -18 32 -36
32 -38 0 -2 12 -16 28 -31 15 -16 57 -62 92 -103 36 -41 70 -80 75 -86 6 -6
35 -39 65 -74 81 -93 90 -100 129 -101 118 -2 604 1 607 4 2 2 -20 29 -49 60
-28 31 -74 82 -102 113 -27 31 -59 66 -70 78 -40 45 -111 124 -149 167 -21 24
-57 64 -80 89 -23 25 -97 108 -166 185 -68 77 -129 145 -135 151 -5 6 -37 41
-70 78 -33 38 -69 78 -80 90 -31 35 -83 93 -165 186 -41 46 -82 91 -90 100 -8
9 -29 32 -45 51 -17 19 -53 59 -80 89 -28 31 -81 91 -120 134 -38 44 -74 84
-80 90 -5 6 -48 54 -95 106 -47 52 -98 110 -115 127 -16 18 -35 38 -40 45 -10
12 -151 170 -222 248 -17 19 -44 50 -60 67 l-28 33 -35 -38z"/>
<path d="M2648 2318 c-13 -13 -52 -57 -88 -98 -36 -41 -78 -89 -95 -106 -16
-18 -48 -53 -70 -79 -22 -26 -53 -62 -70 -79 -26 -28 -107 -119 -168 -190 -10
-12 -35 -39 -55 -61 -21 -22 -69 -76 -107 -120 -39 -44 -74 -85 -80 -91 -5 -6
-39 -44 -75 -84 -36 -40 -72 -81 -80 -89 -8 -9 -87 -98 -175 -196 -87 -99
-167 -189 -177 -200 -10 -11 -28 -32 -40 -46 -13 -14 -40 -45 -62 -68 -21 -23
-36 -45 -33 -48 3 -2 151 -5 328 -5 l323 1 56 60 c64 71 132 147 221 248 35
40 67 73 71 73 4 0 8 5 8 10 0 6 8 18 18 28 9 10 49 54 87 97 39 43 75 83 80
89 6 6 42 47 80 91 39 44 75 85 80 91 6 6 40 44 76 85 37 41 83 92 103 114 20
22 55 64 78 93 38 48 42 59 44 118 3 70 -17 122 -67 173 -20 20 -172 192 -185
210 -2 2 -13 -8 -26 -21z"/>
</g>
</svg>
